<svg width="69" height="68" viewBox="0 0 69 68" fill="none" xmlns="http://www.w3.org/2000/svg">
<path d="M67 34C67 51.6731 52.4493 66 34.5 66C16.5507 66 2 51.6731 2 34C2 16.3269 16.5507 2 34.5 2C52.4493 2 67 16.3269 67 34Z" fill="#F8F9FF" stroke="#4120A9" stroke-width="2.5"/>
<path d="M23.33 45.3C21.81 45.3 20.39 45.03 19.07 44.49C17.75 43.93 16.59 43.16 15.59 42.18C14.59 41.2 13.81 40.06 13.25 38.76C12.71 37.44 12.44 36.02 12.44 34.5C12.44 33 12.71 31.6 13.25 30.3C13.81 29 14.58 27.87 15.56 26.91C16.56 25.93 17.72 25.17 19.04 24.63C20.36 24.09 21.78 23.82 23.3 23.82C24.36 23.82 25.39 23.97 26.39 24.27C27.41 24.57 28.33 24.99 29.15 25.53C29.97 26.07 30.64 26.69 31.16 27.39L29.06 29.58C28.46 29 27.84 28.52 27.2 28.14C26.58 27.76 25.94 27.47 25.28 27.27C24.62 27.07 23.96 26.97 23.3 26.97C22.22 26.97 21.22 27.16 20.3 27.54C19.4 27.92 18.6 28.45 17.9 29.13C17.22 29.81 16.69 30.61 16.31 31.53C15.93 32.43 15.74 33.42 15.74 34.5C15.74 35.54 15.94 36.53 16.34 37.47C16.74 38.39 17.29 39.2 17.99 39.9C18.71 40.6 19.53 41.15 20.45 41.55C21.39 41.95 22.38 42.15 23.42 42.15C24.2 42.15 24.94 42.04 25.64 41.82C26.34 41.58 26.96 41.25 27.5 40.83C28.04 40.41 28.46 39.93 28.76 39.39C29.06 38.83 29.21 38.24 29.21 37.62V37.02L29.66 37.44H23.24V34.23H32.54C32.58 34.45 32.61 34.67 32.63 34.89C32.65 35.09 32.66 35.29 32.66 35.49C32.68 35.67 32.69 35.85 32.69 36.03C32.69 37.41 32.45 38.67 31.97 39.81C31.49 40.93 30.82 41.9 29.96 42.72C29.12 43.54 28.13 44.18 26.99 44.64C25.87 45.08 24.65 45.3 23.33 45.3ZM36.9088 45V24H45.1288C46.6288 24 47.9788 24.25 49.1788 24.75C50.3988 25.25 51.4388 25.97 52.2988 26.91C53.1588 27.85 53.8188 28.96 54.2788 30.24C54.7388 31.52 54.9688 32.94 54.9688 34.5C54.9688 36.06 54.7388 37.49 54.2788 38.79C53.8188 40.07 53.1588 41.18 52.2988 42.12C51.4588 43.04 50.4288 43.75 49.2088 44.25C47.9888 44.75 46.6288 45 45.1288 45H36.9088ZM40.1488 42.21L40.0588 41.88H44.9788C46.0388 41.88 46.9788 41.71 47.7988 41.37C48.6388 41.03 49.3388 40.55 49.8988 39.93C50.4788 39.29 50.9188 38.51 51.2188 37.59C51.5188 36.67 51.6688 35.64 51.6688 34.5C51.6688 33.36 51.5188 32.34 51.2188 31.44C50.9188 30.52 50.4788 29.74 49.8988 29.1C49.3188 28.46 48.6188 27.97 47.7988 27.63C46.9788 27.29 46.0388 27.12 44.9788 27.12H39.9688L40.1488 26.85V42.21Z" fill="#4120A9"/>
</svg>
