<svg width="67" height="66" viewBox="0 0 67 66" fill="none" xmlns="http://www.w3.org/2000/svg">
<path d="M66 33C66 50.6731 51.4493 65 33.5 65C15.5507 65 1 50.6731 1 33C1 15.3269 15.5507 1 33.5 1C51.4493 1 66 15.3269 66 33Z" fill="#F8F9FF" stroke="#4120A9" stroke-width="2"/>
<path d="M22.33 44.3C20.81 44.3 19.39 44.03 18.07 43.49C16.75 42.93 15.59 42.16 14.59 41.18C13.59 40.2 12.81 39.06 12.25 37.76C11.71 36.44 11.44 35.02 11.44 33.5C11.44 32 11.71 30.6 12.25 29.3C12.81 28 13.58 26.87 14.56 25.91C15.56 24.93 16.72 24.17 18.04 23.63C19.36 23.09 20.78 22.82 22.3 22.82C23.36 22.82 24.39 22.97 25.39 23.27C26.41 23.57 27.33 23.99 28.15 24.53C28.97 25.07 29.64 25.69 30.16 26.39L28.06 28.58C27.46 28 26.84 27.52 26.2 27.14C25.58 26.76 24.94 26.47 24.28 26.27C23.62 26.07 22.96 25.97 22.3 25.97C21.22 25.97 20.22 26.16 19.3 26.54C18.4 26.92 17.6 27.45 16.9 28.13C16.22 28.81 15.69 29.61 15.31 30.53C14.93 31.43 14.74 32.42 14.74 33.5C14.74 34.54 14.94 35.53 15.34 36.47C15.74 37.39 16.29 38.2 16.99 38.9C17.71 39.6 18.53 40.15 19.45 40.55C20.39 40.95 21.38 41.15 22.42 41.15C23.2 41.15 23.94 41.04 24.64 40.82C25.34 40.58 25.96 40.25 26.5 39.83C27.04 39.41 27.46 38.93 27.76 38.39C28.06 37.83 28.21 37.24 28.21 36.62V36.02L28.66 36.44H22.24V33.23H31.54C31.58 33.45 31.61 33.67 31.63 33.89C31.65 34.09 31.66 34.29 31.66 34.49C31.68 34.67 31.69 34.85 31.69 35.03C31.69 36.41 31.45 37.67 30.97 38.81C30.49 39.93 29.82 40.9 28.96 41.72C28.12 42.54 27.13 43.18 25.99 43.64C24.87 44.08 23.65 44.3 22.33 44.3ZM35.9088 44V23H44.1288C45.6288 23 46.9788 23.25 48.1788 23.75C49.3988 24.25 50.4388 24.97 51.2988 25.91C52.1588 26.85 52.8188 27.96 53.2788 29.24C53.7388 30.52 53.9688 31.94 53.9688 33.5C53.9688 35.06 53.7388 36.49 53.2788 37.79C52.8188 39.07 52.1588 40.18 51.2988 41.12C50.4588 42.04 49.4288 42.75 48.2088 43.25C46.9888 43.75 45.6288 44 44.1288 44H35.9088ZM39.1488 41.21L39.0588 40.88H43.9788C45.0388 40.88 45.9788 40.71 46.7988 40.37C47.6388 40.03 48.3388 39.55 48.8988 38.93C49.4788 38.29 49.9188 37.51 50.2188 36.59C50.5188 35.67 50.6688 34.64 50.6688 33.5C50.6688 32.36 50.5188 31.34 50.2188 30.44C49.9188 29.52 49.4788 28.74 48.8988 28.1C48.3188 27.46 47.6188 26.97 46.7988 26.63C45.9788 26.29 45.0388 26.12 43.9788 26.12H38.9688L39.1488 25.85V41.21Z" fill="#4120A9"/>
</svg>
